<?xml version="1.0" encoding="UTF-8" standalone="no"?>
<!DOCTYPE svg PUBLIC "-//W3C//DTD SVG 1.1//EN" "http://www.w3.org/Graphics/SVG/1.1/DTD/svg11.dtd">
<svg version="1.1" xmlns="http://www.w3.org/2000/svg" xmlns:xlink="http://www.w3.org/1999/xlink" preserveAspectRatio="xMidYMid meet" viewBox="0 0 1280 800" width="1280" height="800"><defs><path d="M0 0L1280 0L1280 800L0 800L0 0Z" id="ccyb2fqtt"></path><radialGradient id="gradienta16EGOl2UV" gradientUnits="userSpaceOnUse" cx="640" cy="0" r="800"><stop style="stop-color: #5f4b8b;stop-opacity: 1" offset="0%"></stop><stop style="stop-color: #010000;stop-opacity: 1" offset="100%"></stop></radialGradient><path d="M351.56 0L368.44 0L368.44 800L351.56 800L351.56 0Z" id="a14EPPUv1m"></path><path d="M36.13 0L80 0L80 800L36.13 800L36.13 0Z" id="a7WVW37Cs"></path><path d="M215.4 0L224.6 0L224.6 800L215.4 800L215.4 0Z" id="a1prGt5CPx"></path><path d="M585.97 0L614.03 0L614.03 800L585.97 800L585.97 0Z" id="b6VKhoiFQX"></path><path d="M440 0L458.82 0L458.82 800L440 800L440 0Z" id="hrPZMPURl"></path><path d="M266.91 0L310.78 0L310.78 800L266.91 800L266.91 0Z" id="aS4H8rGyk"></path><path d="M701.8 0L709.03 0L709.03 800L701.8 800L701.8 0Z" id="b6oF8dFZOA"></path><path d="M927.74 0L1050 0L1050 800L927.74 800L927.74 0Z" id="b1aWMTS7Q1"></path><path d="M760 0L821.4 0L821.4 800L760 800L760 0Z" id="avKW1N9j9"></path><path d="M1090.42 0L1109.24 0L1109.24 800L1090.42 800L1090.42 0Z" id="aANDeR7Ae"></path><path d="M1126.25 0L1136.74 0L1136.74 800L1126.25 800L1126.25 0Z" id="a58ZwGqXW"></path><path d="M1139.17 0L1149.65 0L1149.65 800L1139.17 800L1139.17 0Z" id="ah5ZAuu5w"></path><path d="M1218.87 0L1341.13 0L1341.13 800L1218.87 800L1218.87 0Z" id="a1GfNTNR3n"></path></defs><g><g><g><use xlink:href="#ccyb2fqtt" opacity="1" fill="url(#gradienta16EGOl2UV)"></use><use xlink:href="#ccyb2fqtt" opacity="1" fill="#5f4b8b" fill-opacity="1"></use></g><g><use xlink:href="#a14EPPUv1m" opacity="1" fill="#232323" fill-opacity="1"></use></g><g><use xlink:href="#a7WVW37Cs" opacity="1" fill="#232323" fill-opacity="1"></use></g><g><use xlink:href="#a1prGt5CPx" opacity="1" fill="#232323" fill-opacity="1"></use></g><g><use xlink:href="#b6VKhoiFQX" opacity="1" fill="#232323" fill-opacity="1"></use></g><g><use xlink:href="#hrPZMPURl" opacity="1" fill="#232323" fill-opacity="1"></use></g><g><use xlink:href="#aS4H8rGyk" opacity="1" fill="#232323" fill-opacity="1"></use></g><g><use xlink:href="#b6oF8dFZOA" opacity="1" fill="#232323" fill-opacity="1"></use></g><g><use xlink:href="#b1aWMTS7Q1" opacity="1" fill="#232323" fill-opacity="1"></use></g><g><use xlink:href="#avKW1N9j9" opacity="1" fill="#232323" fill-opacity="1"></use></g><g><use xlink:href="#aANDeR7Ae" opacity="1" fill="#232323" fill-opacity="1"></use></g><g><use xlink:href="#a58ZwGqXW" opacity="1" fill="#232323" fill-opacity="1"></use></g><g><use xlink:href="#ah5ZAuu5w" opacity="1" fill="#232323" fill-opacity="1"></use></g><g><use xlink:href="#a1GfNTNR3n" opacity="1" fill="#232323" fill-opacity="1"></use></g></g></g></svg>